<svg id="Layer_1" data-name="Layer 1" xmlns="http://www.w3.org/2000/svg" viewBox="0 0 549.2 485.73"><defs><style>.cls-1{fill:#ededed;}.cls-2{fill:#c1a57c;}</style></defs><path class="cls-1" d="M342.11,181.07v72a9.29,9.29,0,0,0,9.29,9.29H576.07V229.81H394.35a25.91,25.91,0,0,1-25.91-25.91H602.93v58.15a26.58,26.58,0,0,1-26.57,26.57H314.59V145.27h361a26.1,26.1,0,0,1-26.1,26.1H351.81A9.7,9.7,0,0,0,342.11,181.07Z" transform="translate(-126.4 -145.27)"/><path class="cls-1" d="M531.26,343.93v-27H314.61V460.26H422.94C531.26,460.26,531.26,402.91,531.26,343.93ZM505.43,343c0,50.24-1.56,91-73.08,91h-93V343" transform="translate(-126.4 -145.27)"/><path class="cls-2" d="M288.1,217.61V145.27H151.65a25.25,25.25,0,0,0-25.25,25.25v437c0,13.62,11,23.48,24.65,23.48V346.3h0a30.8,30.8,0,0,1,28.38,18.83l25,59.22a58.74,58.74,0,0,0,54.13,35.91H288.1V316.91h0a29,29,0,0,0-29,29V434h0a27.63,27.63,0,0,1-25.27-16.47l-29.15-66.07a57.9,57.9,0,0,0-53-34.53h-.69V289.62h65A72,72,0,0,0,288.1,217.61ZM166.18,172.56h93v45.61a43.62,43.62,0,0,1-43.61,43.61H151.05V187.69A15.12,15.12,0,0,1,166.18,172.56Z" transform="translate(-126.4 -145.27)"/></svg>