<svg id="Layer_1" data-name="Layer 1" xmlns="http://www.w3.org/2000/svg" viewBox="0 0 602.56 528.65"><defs><style>.cls-1{fill:#2f475e;}.cls-2{fill:#222831;}.cls-3{fill:#ededed;}</style></defs><path class="cls-1" d="M465.12,139.61s55.5-5.55,65.49,28.86c0,0-37.64-33.67-48-22.19S465.12,139.61,465.12,139.61Z" transform="translate(-101.18 -107.42)"/><path class="cls-2" d="M623.83,428.73a79.59,79.59,0,0,0-27,4.69L595,428.73l-10-37.18,2.22-12.21s7.77,4.44,17.76-5.55a13.87,13.87,0,0,0,2.84-4.13l0,0c18-40-18.34-50.22-18.34-50.22l-29.43,13.15-.1.05-6.05,2.33-4.44-9.43-18.86-11.65v5.55l-10,109.32,17.75,11.65,10-29.13h15.26l18.19,29.42a79.91,79.91,0,1,0,42-11.94Zm0,140.12a60.21,60.21,0,0,1-31.66-111.42l31.66,51.21v-6.11L604,451.78a60.22,60.22,0,1,1,19.84,117.07Z" transform="translate(-101.18 -107.42)"/><path class="cls-2" d="M505.08,496c-3.33,4.36-71-47.52-71-47.52s-46.62-18-52.16-19.7-13.32,6.1-13.32,6.1-37.74,16.65-39.4,23.31c-.69,2.76,4,21,9.07,42.39A79.9,79.9,0,0,0,201,556.16q0,3,.21,5.9l7.56,6.79s-2.22,3.48-5.19,7.51a79.93,79.93,0,0,0,154,2.56c21.45-3.16,73.21-22.76,73.21-22.76l79-23.66S508.41,491.59,505.08,496ZM280.89,616.37a60.21,60.21,0,1,1,60.21-60.21A60.21,60.21,0,0,1,280.89,616.37Z" transform="translate(-101.18 -107.42)"/><path class="cls-2" d="M201.19,562.06a79.36,79.36,0,0,0,2.37,14.3c-4,5.43-9.39,11.87-12.57,12.19-5.55.55-11.1,15-11.1,15l-14.45,25.53V616.37l-18.87,4.92s12.24-47.73,2.25-52.44,16.62-25,16.62-25H181Z" transform="translate(-101.18 -107.42)"/><path class="cls-2" d="M208.75,568.85s-2.22,3.48-5.19,7.51a79.36,79.36,0,0,1-2.37-14.3Z" transform="translate(-101.18 -107.42)"/><path class="cls-3" d="M197.65,200.65s-16.65,12.21-15.54,22.2-1.11,20-10,23.31-66.59,40-66.59,40-13.32,12.21,6.66,33.3L401.86,154,423,146.27,466.23,214s35.52-44.39,31.08-55.49-86.57-51.06-86.57-51.06Z" transform="translate(-101.18 -107.42)"/><path class="cls-1" d="M399.65,147l19.77,10.37S487,120.74,497.69,144.6l10.72,23.87S530.61,99.66,399.65,147Z" transform="translate(-101.18 -107.42)"/><path class="cls-1" d="M525.05,417.07l5.56-5.55V356.25l7.77-11.32L504,260.59,423,146.28l-23.3.72L120,315l4.42,10.54L120,335l37.72,155.37,6.79,2.22,11,11.1-1.11,14.42c-22.21,17.77,0,42.19,0,42.19l6.65-4.44,20,13,19.7-60.21,66-32.18,64.13,33.84,13.32-7.77L350.81,487,363,474.78l-12.21-20c16.65-2.21,12.21,20,30,28.86s48.83-13.31,48.83-13.31h20L474,520.29H454.68l22.65,10,61.05-15.53-7.77-64.37,7.77-15.53ZM272,449.26l-20-1.11L224.28,464.8s-15.53-4.44-23.86-23.31S176.56,356,179.89,344.93s-23.31-5.54-23.31-5.54V325.51l6.67-6.1,8.87-21.09,72.14-42.17,84.91,166.48Zm242.14-93-59.47,23.09s-28.53-37.74-47.89-28.86-48.21,20-48.21,20L299.44,225.07l111.3-49.95,69.92,86.57,33.49,78.8Z" transform="translate(-101.18 -107.42)"/><path class="cls-2" d="M201.19,562.06a79.36,79.36,0,0,0,2.37,14.3c3-4,5.19-7.51,5.19-7.51Z" transform="translate(-101.18 -107.42)"/></svg>